<svg width="14" height="14" viewBox="0 0 14 14" fill="none" xmlns="http://www.w3.org/2000/svg">
<path d="M13.2517 2.05782C13.3652 1.94833 13.4557 1.81735 13.518 1.6725C13.5803 1.52765 13.6131 1.37185 13.6146 1.21418C13.616 1.05651 13.5861 0.900129 13.5264 0.754166C13.4668 0.608202 13.3787 0.475578 13.2672 0.364031C13.1558 0.252484 13.0232 0.164248 12.8773 0.104472C12.7314 0.0446965 12.5751 0.0145779 12.4174 0.0158732C12.2597 0.0171684 12.1039 0.0498519 11.959 0.112017C11.8141 0.174182 11.683 0.264583 11.5734 0.377946L6.81404 5.13575L2.05624 0.377946C1.94753 0.261278 1.81643 0.167702 1.67077 0.102799C1.5251 0.037897 1.36786 0.00299797 1.20842 0.000184802C1.04898 -0.00262837 0.890602 0.026702 0.742741 0.0864254C0.59488 0.146149 0.460563 0.235042 0.347803 0.347803C0.235042 0.460563 0.146149 0.594879 0.0864254 0.74274C0.026702 0.890601 -0.00262837 1.04898 0.000184802 1.20842C0.00299797 1.36786 0.037897 1.5251 0.102799 1.67077C0.167702 1.81643 0.261278 1.94753 0.377946 2.05624L5.13258 6.81562L0.374779 11.5734C0.165024 11.7985 0.0508318 12.0963 0.0562597 12.4039C0.0616876 12.7115 0.186312 13.005 0.403877 13.2226C0.621443 13.4402 0.914961 13.5648 1.2226 13.5702C1.53023 13.5757 1.82797 13.4615 2.05307 13.2517L6.81404 8.49391L11.5718 13.2533C11.7969 13.4631 12.0947 13.5772 12.4023 13.5718C12.7099 13.5664 13.0035 13.4418 13.221 13.2242C13.4386 13.0066 13.5632 12.7131 13.5686 12.4055C13.5741 12.0978 13.4599 11.8001 13.2501 11.575L8.4955 6.81562L13.2517 2.05782Z" fill="#A33434"/>
</svg>
