<svg width="120" height="34" viewBox="0 0 120 34" fill="none" xmlns="http://www.w3.org/2000/svg">
<path d="M19.6596 28.6459C19.63 29.2087 19.4967 29.7567 19.2598 30.2898C19.0228 30.823 18.7118 31.3117 18.3268 31.756C17.9417 32.1707 17.4826 32.4965 16.9495 32.7334C16.4459 32.9408 15.8832 33.0444 15.2611 33.0444C14.2541 33.0444 13.3507 32.7482 12.5509 32.1558C11.7808 31.5635 11.3958 30.5268 11.3958 29.0458L11.3069 29.0014C11.07 29.3864 10.7442 29.8159 10.3295 30.2898C9.94443 30.7637 9.47052 31.208 8.90774 31.6227C8.37459 32.0374 7.76739 32.378 7.08614 32.6446C6.43451 32.8815 5.70883 33 4.9091 33C4.43519 33 3.94647 32.9408 3.44293 32.8223C2.96902 32.6742 2.52473 32.4372 2.11005 32.1114C1.725 31.756 1.39918 31.3117 1.13261 30.7785C0.895652 30.2454 0.777174 29.5938 0.777174 28.8236C0.777174 27.9943 1.10299 27.1946 1.75462 26.4245C2.43587 25.6543 3.26522 24.9583 4.24266 24.3363C5.22011 23.7143 6.07908 23.1811 6.81956 22.7368C7.58967 22.2925 8.25611 21.9223 8.81888 21.6261C9.38166 21.3003 9.87038 21.0337 10.2851 20.8264C10.7293 20.5894 11.0996 20.3821 11.3958 20.2043V15.6281C11.3958 15.5689 11.3365 15.4356 11.2181 15.2283C11.1292 14.9913 10.9515 14.7544 10.6849 14.5174C10.448 14.2804 10.1073 14.0731 9.66304 13.8954C9.21875 13.688 8.64117 13.5844 7.9303 13.5844C7.45638 13.5844 6.98247 13.6732 6.50856 13.851C6.06427 13.9991 5.6644 14.2064 5.30897 14.473C4.95353 14.7099 4.67215 14.9617 4.46481 15.2283C4.25747 15.4652 4.1538 15.6726 4.1538 15.8503V17.8496C4.1538 18.2643 3.93166 18.6345 3.48736 18.9603C3.07269 19.2861 2.61359 19.4491 2.11005 19.4491C1.63614 19.4491 1.22147 19.2861 0.866032 18.9603C0.540217 18.6049 0.37731 18.205 0.37731 17.7607C0.37731 17.4053 0.466168 17.0795 0.643886 16.7833C0.821603 16.4871 1.04375 16.2205 1.31033 15.9836C1.5769 15.7466 1.85829 15.5393 2.15448 15.3616C2.4803 15.1838 2.76168 15.0209 2.99864 14.8728C3.76875 14.4285 4.55367 13.9991 5.3534 13.5844C6.15312 13.1697 6.90842 12.8143 7.61929 12.5181C8.35978 12.2219 9.02622 11.9849 9.61861 11.8072C10.2406 11.6295 10.7442 11.5406 11.1292 11.5406C11.8993 11.5406 12.625 11.748 13.3062 12.1626C13.9875 12.5477 14.4762 13.0364 14.7724 13.6288C14.8909 13.8361 14.9649 14.2064 14.9946 14.7395C15.0242 15.2431 15.039 15.7466 15.039 16.2501C15.039 17.3164 15.0242 18.2791 14.9946 19.138C14.9946 19.997 14.9946 20.8264 14.9946 21.6261C14.9946 22.4258 14.9798 23.2552 14.9501 24.1141C14.9501 24.9435 14.9501 25.8617 14.9501 26.8688C14.9501 28.2016 15.1723 29.0902 15.6166 29.5345C16.0905 29.9492 16.6236 30.1565 17.216 30.1565C17.8973 30.1565 18.4008 30.0232 18.7266 29.7567C19.0524 29.4605 19.2746 29.0902 19.3931 28.6459H19.6596ZM11.3958 27.7573V20.9152C10.8626 21.3003 10.1962 21.7149 9.39647 22.1592C8.59674 22.5739 7.81182 23.033 7.04171 23.5365C6.30122 24.0401 5.64959 24.6029 5.08682 25.2249C4.55367 25.8173 4.28709 26.4985 4.28709 27.2686C4.28709 28.0387 4.55367 28.7348 5.08682 29.3568C5.61997 29.9788 6.31603 30.2898 7.175 30.2898C7.94511 30.2898 8.62636 30.201 9.21875 30.0232C9.81114 29.8455 10.3591 29.5049 10.8626 29.0014C11.2181 28.6755 11.3958 28.2609 11.3958 27.7573ZM36.0648 11.9849L34.6875 14.6951H27.9343V26.38C27.9343 27.8906 28.2601 28.9865 28.9117 29.6678C29.5633 30.349 30.4075 30.6897 31.4442 30.6897C32.3031 30.6897 33.014 30.5564 33.5768 30.2898C34.1396 29.9936 34.6283 29.5493 35.043 28.9569L35.3095 29.0902C35.1318 29.5345 34.88 30.0084 34.5542 30.512C34.258 30.9859 33.8434 31.4302 33.3102 31.8448C32.8067 32.2299 32.1995 32.5409 31.4886 32.7779C30.8074 32.9852 29.9928 33.0889 29.045 33.0889C28.423 33.0889 27.8158 33 27.2234 32.8223C26.6606 32.6149 26.1571 32.3336 25.7128 31.9781C25.2685 31.5931 24.8983 31.1784 24.6021 30.7341C24.3355 30.2602 24.2022 29.7863 24.2022 29.3124C24.2022 26.5281 24.217 23.892 24.2466 21.4039C24.2762 18.8863 24.2911 16.65 24.2911 14.6951H21.0477V14.2064L27.49 8.11957H27.8454V11.9849H36.0648ZM55.6679 26.2467C55.5494 26.8984 55.2828 27.6389 54.8682 28.4682C54.4535 29.2679 53.8907 30.0084 53.1798 30.6897C52.469 31.3709 51.61 31.9337 50.6029 32.378C49.6255 32.8223 48.5296 33.0444 47.3152 33.0444C45.8046 33.0444 44.4273 32.763 43.1832 32.2003C41.9392 31.6375 40.8729 30.8526 39.9843 29.8455C39.1254 28.8088 38.4589 27.6092 37.985 26.2467C37.5111 24.8546 37.2741 23.3885 37.2741 21.8482C37.2741 20.6042 37.4963 19.375 37.9406 18.1606C38.3849 16.9166 39.0069 15.8058 39.8066 14.8284C40.636 13.851 41.6282 13.066 42.7834 12.4736C43.9682 11.8516 45.2714 11.5406 46.6932 11.5406C47.8483 11.5406 48.9294 11.6887 49.9365 11.9849C50.9732 12.2811 51.8618 12.7402 52.6023 13.3622C53.3724 13.9546 53.9944 14.7099 54.4683 15.6281C54.9422 16.5463 55.2236 17.6274 55.3125 18.8715H41.0506C41.0506 19.1084 41.0358 19.3898 41.0062 19.7156C40.9766 20.0118 40.9618 20.3228 40.9618 20.6486C40.9618 21.8927 41.1395 23.0923 41.4949 24.2474C41.8504 25.373 42.3687 26.38 43.05 27.2686C43.7312 28.1276 44.5902 28.8088 45.6269 29.3124C46.6635 29.8159 47.8631 30.0677 49.2256 30.0677C50.7066 30.0677 51.9951 29.6974 53.091 28.9569C54.2165 28.1868 54.957 27.2538 55.3125 26.1579L55.6679 26.2467ZM50.9139 16.2946C50.9139 15.1986 50.5289 14.2656 49.7588 13.4955C49.0183 12.6958 48.0112 12.2959 46.7376 12.2959C45.9082 12.2959 45.1529 12.5477 44.4717 13.0512C43.8201 13.5251 43.2425 14.0879 42.7389 14.7395C42.265 15.3912 41.8948 16.0576 41.6282 16.7389C41.3616 17.3905 41.1987 17.894 41.1395 18.2495C41.8207 18.2495 42.4279 18.2495 42.9611 18.2495C43.4942 18.2495 44.0126 18.2495 44.5161 18.2495C45.0493 18.2198 45.5972 18.205 46.16 18.205C46.7228 18.1754 47.3448 18.1606 48.026 18.1606C48.4703 18.1606 48.885 18.1458 49.2701 18.1162C49.6551 18.0866 49.9957 18.0125 50.2919 17.894C50.4993 17.6571 50.6474 17.4349 50.7362 17.2276C50.8547 17.0202 50.9139 16.7092 50.9139 16.2946ZM67.9557 33H57.6037V32.5113C58.9662 32.4224 59.8696 32.2891 60.3139 32.1114C60.7582 31.9041 60.9803 31.5635 60.9803 31.0895V5.54267C60.9803 5.30571 60.9507 5.12799 60.8915 5.00951C60.8618 4.89104 60.7434 4.75775 60.536 4.60965C60.2694 4.46155 59.8696 4.2394 59.3364 3.94321C58.8033 3.61739 58.359 3.38044 58.0036 3.23234V2.96576L64.3569 0.877585H64.668V31.3117C64.668 31.6079 64.7272 31.83 64.8457 31.9781C64.9938 32.1262 65.2011 32.2299 65.4677 32.2891C65.7343 32.3484 66.0749 32.3928 66.4896 32.4224C66.9042 32.4224 67.393 32.452 67.9557 32.5113V33ZM77.6455 4.52079C77.6455 5.20204 77.4085 5.77962 76.9346 6.25353C76.4903 6.69783 75.9276 6.91998 75.2463 6.91998C74.5947 6.91998 74.0319 6.68302 73.558 6.20911C73.0841 5.73519 72.8471 5.17242 72.8471 4.52079C72.8471 3.83954 73.0693 3.27677 73.5136 2.83248C73.9875 2.38818 74.5651 2.16604 75.2463 2.16604C75.9276 2.16604 76.4903 2.38818 76.9346 2.83248C77.4085 3.27677 77.6455 3.83954 77.6455 4.52079ZM80.1335 33H70.5812V32.5557C70.9367 32.5261 71.2921 32.4965 71.6475 32.4668C72.003 32.4076 72.314 32.3336 72.5805 32.2447C72.8767 32.1262 73.1137 31.9781 73.2914 31.8004C73.4987 31.6227 73.6024 31.4005 73.6024 31.134V15.8947C73.6024 15.6577 73.5728 15.4504 73.5136 15.2727C73.4839 15.095 73.3655 14.9321 73.1581 14.784C72.8915 14.6063 72.5657 14.4285 72.1807 14.2508C71.8252 14.0731 71.4402 13.9102 71.0255 13.7621V13.4955L77.0235 11.5406H77.2901V31.4005C77.3493 31.6967 77.4678 31.9189 77.6455 32.067C77.8528 32.1855 78.0898 32.2743 78.3564 32.3336C78.6229 32.3928 78.9043 32.4372 79.2005 32.4668C79.5263 32.4668 79.8373 32.4965 80.1335 32.5557V33ZM101.855 26.2467C101.737 26.8984 101.47 27.6389 101.056 28.4682C100.641 29.2679 100.078 30.0084 99.3673 30.6897C98.6564 31.3709 97.7974 31.9337 96.7904 32.378C95.8129 32.8223 94.717 33.0444 93.5026 33.0444C91.992 33.0444 90.6147 32.763 89.3707 32.2003C88.1266 31.6375 87.0603 30.8526 86.1718 29.8455C85.3128 28.8088 84.6463 27.6092 84.1724 26.2467C83.6985 24.8546 83.4616 23.3885 83.4616 21.8482C83.4616 20.6042 83.6837 19.375 84.128 18.1606C84.5723 16.9166 85.1943 15.8058 85.994 14.8284C86.8234 13.851 87.8156 13.066 88.9708 12.4736C90.1556 11.8516 91.4588 11.5406 92.8806 11.5406C94.0357 11.5406 95.1169 11.6887 96.1239 11.9849C97.1606 12.2811 98.0492 12.7402 98.7897 13.3622C99.5598 13.9546 100.182 14.7099 100.656 15.6281C101.13 16.5463 101.411 17.6274 101.5 18.8715H87.2381C87.2381 19.1084 87.2233 19.3898 87.1936 19.7156C87.164 20.0118 87.1492 20.3228 87.1492 20.6486C87.1492 21.8927 87.3269 23.0923 87.6824 24.2474C88.0378 25.373 88.5561 26.38 89.2374 27.2686C89.9186 28.1276 90.7776 28.8088 91.8143 29.3124C92.851 29.8159 94.0506 30.0677 95.4131 30.0677C96.894 30.0677 98.1825 29.6974 99.2784 28.9569C100.404 28.1868 101.144 27.2538 101.5 26.1579L101.855 26.2467ZM97.1014 16.2946C97.1014 15.1986 96.7163 14.2656 95.9462 13.4955C95.2057 12.6958 94.1987 12.2959 92.925 12.2959C92.0957 12.2959 91.3404 12.5477 90.6591 13.0512C90.0075 13.5251 89.4299 14.0879 88.9264 14.7395C88.4525 15.3912 88.0822 16.0576 87.8156 16.7389C87.5491 17.3905 87.3862 17.894 87.3269 18.2495C88.0082 18.2495 88.6154 18.2495 89.1485 18.2495C89.6817 18.2495 90.2 18.2495 90.7035 18.2495C91.2367 18.2198 91.7847 18.205 92.3474 18.205C92.9102 18.1754 93.5322 18.1606 94.2135 18.1606C94.6578 18.1606 95.0724 18.1458 95.4575 18.1162C95.8425 18.0866 96.1832 18.0125 96.4794 17.894C96.6867 17.6571 96.8348 17.4349 96.9237 17.2276C97.0421 17.0202 97.1014 16.7092 97.1014 16.2946ZM119.786 13.8954C119.786 14.547 119.593 15.095 119.208 15.5393C118.823 15.9539 118.379 16.1613 117.875 16.1613C117.401 16.1613 117.016 16.0872 116.72 15.9391C116.453 15.7614 116.217 15.5689 116.009 15.3616C115.802 15.1542 115.58 14.9765 115.343 14.8284C115.106 14.6507 114.78 14.5618 114.365 14.5618C114.01 14.5618 113.654 14.6951 113.299 14.9617C112.973 15.1986 112.662 15.5096 112.366 15.8947C112.07 16.2798 111.803 16.7241 111.566 17.2276C111.329 17.7015 111.122 18.1606 110.944 18.6049V31.4005C111.033 31.6671 111.226 31.8745 111.522 32.0226C111.818 32.1707 112.144 32.2743 112.499 32.3336C112.884 32.3928 113.269 32.4372 113.654 32.4668C114.069 32.4668 114.425 32.4965 114.721 32.5557V33H104.769V32.5557C105.45 32.4965 106.027 32.3632 106.501 32.1558C107.005 31.9485 107.257 31.6079 107.257 31.134V16.1168C107.257 15.8799 107.227 15.7022 107.168 15.5837C107.138 15.4652 107.02 15.3319 106.812 15.1838C106.546 15.0357 106.235 14.858 105.879 14.6507C105.524 14.4137 105.168 14.2212 104.813 14.0731V13.8065L110.633 11.5406H110.9L110.811 17.7163H110.9C111.048 17.3609 111.285 16.8425 111.611 16.1613C111.936 15.48 112.351 14.7988 112.855 14.1175C113.358 13.4067 113.965 12.7995 114.676 12.2959C115.387 11.7924 116.202 11.5406 117.12 11.5406C117.86 11.5406 118.482 11.7628 118.986 12.2071C119.519 12.6514 119.786 13.2141 119.786 13.8954Z" fill="white"/>
</svg>
